# xmcd
# 
# Track frame offsets:
#     150
#     16212
#     31600
#     62792
#     83505
#     96565
#     108920
#     121692
#     137277
#     148330
#     160545
#     176972
#     189715
#     207180
# 
# Disc length: 2953
# 
# Revision: 2
# Processed by: cddbd v1.5.2PL0 Copyright (c) Steve Scherf et al.
# Submitted via: BonkEnc v1.0beta4
# 
DISCID=b40b870e
DTITLE=Various Artist - Jazz Legends - Crooners - Disc 1
DYEAR=2002
DGENRE=Jazz
TTITLE0=Louis Armstrong - On The Sunny Side Of The Street
TTITLE1=Louis Armstrong - Mack The Knife
TTITLE2=Tony Bennet - In A Mellow Tone
TTITLE3=Tony Bennet - Mood Indigo
TTITLE4=Count Basie - Blue Skies
TTITLE5=Count Basie - I Can't Believe Your In Love With Me
TTITLE6=Vic Damone - Almost Like Being In Love
TTITLE7=Vic Damone - But Beautiful
TTITLE8=Buddy Greco - Like Young
TTITLE9=Buddy Greco - My Kind Of Girl
TTITLE10=Buddy Greco - The Lady Is A Tramp
TTITLE11=Mel Torme - PS I Love You
TTITLE12=Mel Torme - That's All
TTITLE13=Mel Torme - The Christmas Song
EXTD=YEAR: 2002
EXTT0=
EXTT1=
EXTT2=
EXTT3=
EXTT4=
EXTT5=
EXTT6=
EXTT7=
EXTT8=
EXTT9=
EXTT10=
EXTT11=
EXTT12=
EXTT13=
PLAYORDER=
